<svg width="30" height="31" viewBox="0 0 30 31" fill="none" xmlns="http://www.w3.org/2000/svg">
<path fill-rule="evenodd" clip-rule="evenodd" d="M14.9845 30.0675C23.2603 30.0675 29.9691 23.3897 29.9691 15.1523C29.9691 6.91492 23.2603 0.237183 14.9845 0.237183C6.70881 0.237183 0 6.91492 0 15.1523C0 23.3897 6.70881 30.0675 14.9845 30.0675ZM24.7563 19.1821C25.2877 17.9052 25.5612 16.5365 25.5612 15.1544H14.9872L4.41321 15.1544C4.41321 16.5365 4.68671 17.9052 5.21811 19.1821C5.7495 20.4591 6.52838 21.6193 7.51026 22.5967C8.49215 23.574 9.65782 24.3493 10.9407 24.8782C12.2236 25.4071 13.5986 25.6794 14.9872 25.6794C16.3758 25.6794 17.7508 25.4071 19.0337 24.8782C20.3166 24.3493 21.4823 23.574 22.4642 22.5967C23.446 21.6193 24.2249 20.4591 24.7563 19.1821Z" fill="#FF8412"/>
</svg>
